<svg xmlns="http://www.w3.org/2000/svg" viewBox="0 0 440 440">
  <defs>
    <style>
      .bg{fill:#f7c96b}
      .mark{fill:#6a0f0f}
    </style>
  </defs>
  <rect class="bg" x="0" y="0" width="440" height="440" rx="32" ry="32"/>
  <path class="mark" d="M140 90h160c40 0 66 28 66 62 0 34-26 62-66 62H140c-40 0-66-28-66-62 0-34 26-62 66-62zm0 176h160c40 0 66 28 66 62 0 34-26 62-66 62H140c-40 0-66-28-66-62 0-34 26-62 66-62zM160 130c-18 0-32 12-32 22s14 22 32 22h120c18 0 32-12 32-22s-14-22-32-22H160zm0 176c-18 0-32 12-32 22s14 22 32 22h120c18 0 32-12 32-22s-14-22-32-22H160z"/>
</svg>
